  0
SECTION
  2
HEADER
  9
$ACADVER
  1
AC1015
  9
$ACADMAINTVER
 70
     6
  9
$DWGCODEPAGE
  3
ANSI_1252
  9
$INSBASE
 10
0.0
 20
0.0
 30
0.0
  9
$EXTMIN
 10
332.74
 20
265.429997
 30
0.0
  9
$EXTMAX
 10
1064.26
 20
814.070003
 30
0.0
  9
$LIMMIN
 10
315.322857
 20
243.658572
  9
$LIMMAX
 10
1081.682741
 20
835.845755
  9
$ORTHOMODE
 70
     0
  9
$REGENMODE
 70
     1
  9
$FILLMODE
 70
     1
  9
$QTEXTMODE
 70
     0
  9
$MIRRTEXT
 70
     1
  9
$LTSCALE
 40
1.0
  9
$ATTMODE
 70
     1
  9
$TEXTSIZE
 40
10.0
  9
$TRACEWID
 40
1.0
  9
$TEXTSTYLE
  7
STANDARD
  9
$CLAYER
  8
0
  9
$CELTYPE
  6
Continuous
  9
$CECOLOR
 62
     7
  9
$CELTSCALE
 40
1.0
  9
$DISPSILH
 70
     0
  9
$DIMSCALE
 40
1.0
  9
$DIMASZ
 40
5.0
  9
$DIMEXO
 40
0.0
  9
$DIMDLI
 40
1.875
  9
$DIMRND
 40
0.01
  9
$DIMDLE
 40
0.0
  9
$DIMEXE
 40
0.0
  9
$DIMTP
 40
0.0
  9
$DIMTM
 40
0.0
  9
$DIMTXT
 40
6.0
  9
$DIMCEN
 40
0.09
  9
$DIMTSZ
 40
0.0
  9
$DIMTOL
 70
     0
  9
$DIMLIM
 70
     0
  9
$DIMTIH
 70
     0
  9
$DIMTOH
 70
     0
  9
$DIMSE1
 70
     0
  9
$DIMSE2
 70
     0
  9
$DIMTAD
 70
     0
  9
$DIMZIN
 70
     0
  9
$DIMBLK
  1
TC_DIMARROW_FILLED30
  9
$DIMASO
 70
     0
  9
$DIMSHO
 70
     1
  9
$DIMPOST
  1

  9
$DIMAPOST
  1

  9
$DIMALT
 70
     0
  9
$DIMALTD
 70
     3
  9
$DIMALTF
 40
1.0
  9
$DIMLFAC
 40
1.0
  9
$DIMTOFL
 70
     0
  9
$DIMTVP
 40
0.0
  9
$DIMTIX
 70
     0
  9
$DIMSOXD
 70
     0
  9
$DIMSAH
 70
     0
  9
$DIMBLK1
  1

  9
$DIMBLK2
  1

  9
$DIMSTYLE
  2
STANDARD
  9
$DIMCLRD
 70
     7
  9
$DIMCLRE
 70
     7
  9
$DIMCLRT
 70
     7
  9
$DIMTFAC
 40
1.0
  9
$DIMGAP
 40
0.02
  9
$DIMJUST
 70
     0
  9
$DIMSD1
 70
     0
  9
$DIMSD2
 70
     0
  9
$DIMTOLJ
 70
     1
  9
$DIMTZIN
 70
     0
  9
$DIMALTZ
 70
     0
  9
$DIMALTTZ
 70
     0
  9
$DIMUPT
 70
     0
  9
$DIMDEC
 70
     2
  9
$DIMTDEC
 70
     2
  9
$DIMALTU
 70
     2
  9
$DIMALTTD
 70
     3
  9
$DIMTXSTY
  7
STANDARD
  9
$DIMAUNIT
 70
     0
  9
$DIMADEC
 70
     2
  9
$DIMALTRND
 40
0.0
  9
$DIMAZIN
 70
     0
  9
$DIMDSEP
 70
     0
  9
$DIMATFIT
 70
     0
  9
$DIMFRAC
 70
     0
  9
$DIMLDRBLK
  1

  9
$DIMLUNIT
 70
     2
  9
$DIMLWD
 70
     0
  9
$DIMLWE
 70
     0
  9
$DIMTMOVE
 70
     0
  9
$LUNITS
 70
     2
  9
$LUPREC
 70
     2
  9
$SKETCHINC
 40
1.0
  9
$FILLETRAD
 40
0.25
  9
$AUNITS
 70
     0
  9
$AUPREC
 70
     2
  9
$MENU
  1
acad
  9
$ELEVATION
 40
0.0
  9
$PELEVATION
 40
0.0
  9
$THICKNESS
 40
0.0
  9
$LIMCHECK
 70
     0
  9
$CHAMFERA
 40
0.0
  9
$CHAMFERB
 40
0.0
  9
$CHAMFERC
 40
0.0
  9
$CHAMFERD
 40
0.0
  9
$SKPOLY
 70
     0
  9
$TDCREATE
 40
0.000000000
  9
$TDUCREATE
 40
0.000000000
  9
$TDUPDATE
 40
2449702.667959363
  9
$TDUUPDATE
 40
0.000000000
  9
$TDINDWG
 40
0.0000000000
  9
$TDUSRTIMER
 40
0.0000000000
  9
$USRTIMER
 70
     1
  9
$ANGBASE
 50
0.0
  9
$ANGDIR
 70
     0
  9
$PDMODE
 70
     0
  9
$PDSIZE
 40
0.0
  9
$PLINEWID
 40
0.0
  9
$SPLFRAME
 70
     0
  9
$SPLINETYPE
 70
     5
  9
$SPLINESEGS
 70
    20
  9
$HANDSEED
  5
E9
  9
$SURFTAB1
 70
     6
  9
$SURFTAB2
 70
     6
  9
$SURFTYPE
 70
     6
  9
$SURFU
 70
     6
  9
$SURFV
 70
     6
  9
$UCSBASE
  2

  9
$UCSNAME
  2

  9
$UCSORG
 10
0.0
 20
0.0
 30
0.0
  9
$UCSXDIR
 10
1.0
 20
0.0
 30
0.0
  9
$UCSYDIR
 10
0.0
 20
1.0
 30
0.0
  9
$UCSORTHOREF
  2

  9
$UCSORTHOVIEW
 70
     0
  9
$UCSORGTOP
 10
0.0
 20
0.0
 30
0.0
  9
$UCSORGBOTTOM
 10
0.0
 20
0.0
 30
0.0
  9
$UCSORGLEFT
 10
0.0
 20
0.0
 30
0.0
  9
$UCSORGRIGHT
 10
0.0
 20
0.0
 30
0.0
  9
$UCSORGFRONT
 10
0.0
 20
0.0
 30
0.0
  9
$UCSORGBACK
 10
0.0
 20
0.0
 30
0.0
  9
$PUCSBASE
  2

  9
$PUCSNAME
  2

  9
$PUCSORG
 10
0.0
 20
0.0
 30
0.0
  9
$PUCSXDIR
 10
1.0
 20
0.0
 30
0.0
  9
$PUCSYDIR
 10
0.0
 20
1.0
 30
0.0
  9
$PUCSORTHOREF
  2

  9
$PUCSORTHOVIEW
 70
     0
  9
$PUCSORGTOP
 10
0.0
 20
0.0
 30
0.0
  9
$PUCSORGBOTTOM
 10
0.0
 20
0.0
 30
0.0
  9
$PUCSORGLEFT
 10
0.0
 20
0.0
 30
0.0
  9
$PUCSORGRIGHT
 10
0.0
 20
0.0
 30
0.0
  9
$PUCSORGFRONT
 10
0.0
 20
0.0
 30
0.0
  9
$PUCSORGBACK
 10
0.0
 20
0.0
 30
0.0
  9
$USERI1
 70
     0
  9
$USERI2
 70
     0
  9
$USERI3
 70
     0
  9
$USERI4
 70
     0
  9
$USERI5
 70
     0
  9
$USERR1
 40
0.0
  9
$USERR2
 40
0.0
  9
$USERR3
 40
0.0
  9
$USERR4
 40
0.0
  9
$USERR5
 40
0.0
  9
$WORLDVIEW
 70
     1
  9
$SHADEDGE
 70
     3
  9
$SHADEDIF
 70
    70
  9
$TILEMODE
 70
     1
  9
$MAXACTVP
 70
    16
  9
$PINSBASE
 10
0.0
 20
0.0
 30
0.0
  9
$PLIMCHECK
 70
     0
  9
$PEXTMIN
 10
0.0
 20
0.0
 30
0.0
  9
$PEXTMAX
 10
11.0
 20
8.5
 30
0.0
  9
$PLIMMIN
 10
0.0
 20
0.0
  9
$PLIMMAX
 10
11.0
 20
8.5
  9
$UNITMODE
 70
     0
  9
$VISRETAIN
 70
     0
  9
$PLINEGEN
 70
     1
  9
$PSLTSCALE
 70
     1
  9
$TREEDEPTH
 70
  3020
  9
$CMLSTYLE
  2
STANDARD
  9
$CMLJUST
 70
     0
  9
$CMLSCALE
 40
1.0
  9
$PROXYGRAPHICS
 70
     0
  9
$MEASUREMENT
 70
     0
  9
$CELWEIGHT
370
     0
  9
$ENDCAPS
280
     0
  9
$JOINSTYLE
280
     0
  9
$LWDISPLAY
290
     0
  9
$INSUNITS
 70
     0
  9
$HYPERLINKBASE
  1

  9
$STYLESHEET
  1

  9
$XEDIT
290
     1
  9
$CEPSNTYPE
380
     0
  9
$PSTYLEMODE
290
     1
  9
$FINGERPRINTGUID
  2

  9
$VERSIONGUID
  2

  9
$EXTNAMES
290
     1
  9
$PSVPSCALE
 40
0.0
  0
ENDSEC
  0
SECTION
  2
CLASSES
  0
CLASS
  1
LWPOLYLINE
  2
AcDbPolyline
  3
AutoCAD 2000
 90
        0
280
     0
281
     1
  0
CLASS
  1
IMAGE
  2
AcDbRasterImage
  3
ISM
 90
    32895
280
     0
281
     1
  0
CLASS
  1
OLE2FRAME
  2
AcDbOle2Frame
  3
AutoCAD 2000
 90
    32768
280
     0
281
     1
  0
CLASS
  1
HATCH
  2
AcDbHatch
  3
AutoCAD 2000
 90
        0
280
     0
281
     1
  0
CLASS
  1
DICTIONARYVAR
  2
AcDbDictionaryVar
  3
AutoCAD 2000
 90
    32768
280
     0
281
     0
  0
CLASS
  1
RASTERVARIABLES
  2
AcDbRasterVariables
  3
ISM
 90
    32768
280
     0
281
     0
  0
CLASS
  1
IMAGEDEF
  2
AcDbRasterImageDef
  3
ISM
 90
    32768
280
     0
281
     0
  0
CLASS
  1
IMAGEDEF_REACTOR
  2
AcDbRasterImageDefReactor
  3
ISM
 90
    32769
280
     0
281
     0
  0
CLASS
  1
IDBUFFER
  2
AcDbIdBuffer
  3
AutoCAD 2000
 90
    32768
280
     0
281
     0
  0
CLASS
  1
SPATIAL_FILTER
  2
AcDbSpatialFilter
  3
AutoCAD 2000
 90
    32768
280
     0
281
     0
  0
CLASS
  1
XRECORD
  2
AcDbXrecord
  3
AutoCAD 2000
 90
    32768
280
     0
281
     0
  0
CLASS
  1
SORTENTSTABLE
  2
AcDbSortentsTable
  3
AutoCAD 2000
 90
    32768
280
     0
281
     0
  0
CLASS
  1
LAYER_INDEX
  2
AcDbLayerIndex
  3
AutoCAD 2000
 90
    32768
280
     0
281
     0
  0
CLASS
  1
SPATIAL_INDEX
  2
AcDbSpatialIndex
  3
AutoCAD 2000
 90
    32768
280
     0
281
     0
  0
CLASS
  1
OBJECT_PTR
  2
CAseDLPNTableRecord
  3
"ASE-LPNTableRecord"
 90
    32769
280
     0
281
     0
  0
CLASS
  1
LAYOUT
  2
AcDbLayout
  3
AutoCAD 2000
 90
        0
280
     0
281
     0
  0
CLASS
  1
PLOTSETTINGS
  2
AcDbPlotSettings
  3
AutoCAD 2000
 90
    32768
280
     0
281
     0
  0
CLASS
  1
ACDBDICTIONARYWDFLT
  2
AcDbDictionaryWithDefault
  3
AutoCAD 2000
 90
        0
280
     0
281
     0
  0
CLASS
  1
ACDBPLACEHOLDER
  2
AcDbPlaceHolder
  3
AutoCAD 2000
 90
        0
280
     0
281
     0
  0
ENDSEC
  0
SECTION
  2
TABLES
  0
TABLE
  2
VPORT
  5
7
100
AcDbSymbolTable
 70
     1
  0
VPORT
  5
15
100
AcDbSymbolTableRecord
100
AcDbViewportTableRecord
  2
*ACTIVE
 70
     0
 10
0.0
 20
0.0
 11
1.0
 21
1.0
 12
0.0
 22
0.0
 13
0.0
 23
0.0
 14
0.25
 24
0.25
 15
0.25
 25
0.25
 16
0.0
 26
0.0
 36
25.4
 17
698.5
 27
539.75
 37
25.4
 40
559.612806
 41
1.631455
 42
50.0
 43
0.0
 44
0.0
 50
0.0
 51
0.0
 71
     0
 72
   100
 73
     1
 74
     1
 75
     0
 76
     1
 77
     0
 78
     0
281
     0
 65
     0
110
0.0
120
0.0
130
0.0
111
1.0
121
0.0
131
0.0
112
0.0
122
1.0
132
0.0
345
0
346
0
 79
     0
146
0.0
  0
ENDTAB
  0
TABLE
  2
LTYPE
  5
4
100
AcDbSymbolTable
 70
    15
  0
LTYPE
  5
11
100
AcDbSymbolTableRecord
100
AcDbLinetypeTableRecord
  2
ByBlock
 70
    64
  3

 72
    65
 73
     0
 40
0.0
  0
LTYPE
  5
12
100
AcDbSymbolTableRecord
100
AcDbLinetypeTableRecord
  2
ByLayer
 70
    64
  3

 72
    65
 73
     0
 40
0.0
  0
LTYPE
  5
13
100
AcDbSymbolTableRecord
100
AcDbLinetypeTableRecord
  2
Continuous
 70
    64
  3
Solid line
 72
    65
 73
     0
 40
0.0
  0
LTYPE
  5
24
100
AcDbSymbolTableRecord
100
AcDbLinetypeTableRecord
  2
BORDER
 70
     0
  3
BORDER
 72
    65
 73
     6
 40
1.75
 49
0.5
 74
     0
 49
-0.25
 74
     0
 49
0.5
 74
     0
 49
-0.25
 74
     0
 49
0.0
 74
     0
 49
-0.25
 74
     0
  0
LTYPE
  5
25
100
AcDbSymbolTableRecord
100
AcDbLinetypeTableRecord
  2
CENTER
 70
     0
  3
CENTER
 72
    65
 73
     4
 40
2.0
 49
1.25
 74
     0
 49
-0.25
 74
     0
 49
0.25
 74
     0
 49
-0.25
 74
     0
  0
LTYPE
  5
26
100
AcDbSymbolTableRecord
100
AcDbLinetypeTableRecord
  2
DASHDOT
 70
     0
  3
DASHDOT
 72
    65
 73
     4
 40
1.0
 49
0.5
 74
     0
 49
-0.25
 74
     0
 49
0.0
 74
     0
 49
-0.25
 74
     0
  0
LTYPE
  5
27
100
AcDbSymbolTableRecord
100
AcDbLinetypeTableRecord
  2
DASHED
 70
     0
  3
DASHED
 72
    65
 73
     2
 40
0.75
 49
0.5
 74
     0
 49
-0.25
 74
     0
  0
LTYPE
  5
28
100
AcDbSymbolTableRecord
100
AcDbLinetypeTableRecord
  2
DIVIDE
 70
     0
  3
DIVIDE
 72
    65
 73
     6
 40
1.25
 49
0.5
 74
     0
 49
-0.25
 74
     0
 49
0.0
 74
     0
 49
-0.25
 74
     0
 49
0.0
 74
     0
 49
-0.25
 74
     0
  0
LTYPE
  5
29
100
AcDbSymbolTableRecord
100
AcDbLinetypeTableRecord
  2
DOT
 70
     0
  3
DOT
 72
    65
 73
     2
 40
0.25
 49
0.0
 74
     0
 49
-0.25
 74
     0
  0
LTYPE
  5
2A
100
AcDbSymbolTableRecord
100
AcDbLinetypeTableRecord
  2
HIDDEN
 70
     0
  3
HIDDEN
 72
    65
 73
     2
 40
0.375
 49
0.25
 74
     0
 49
-0.125
 74
     0
  0
LTYPE
  5
2B
100
AcDbSymbolTableRecord
100
AcDbLinetypeTableRecord
  2
PHANTOM
 70
     0
  3
PHANTOM
 72
    65
 73
     6
 40
2.5
 49
1.25
 74
     0
 49
-0.25
 74
     0
 49
0.25
 74
     0
 49
-0.25
 74
     0
 49
0.25
 74
     0
 49
-0.25
 74
     0
  0
LTYPE
  5
2C
100
AcDbSymbolTableRecord
100
AcDbLinetypeTableRecord
  2
$INVISIBLE
 70
     0
  3
$INVISIBLE
 72
    65
 73
     2
 40
200.0
 49
-100.0
 74
     0
 49
-100.0
 74
     0
  0
LTYPE
  5
2D
100
AcDbSymbolTableRecord
100
AcDbLinetypeTableRecord
  2
$AUXILIARY
 70
     0
  3
$AUXILIARY
 72
    65
 73
     2
 40
0.1
 49
0.05
 74
     0
 49
-0.05
 74
     0
  0
LTYPE
  5
2E
100
AcDbSymbolTableRecord
100
AcDbLinetypeTableRecord
  2
$CONSTRUCTION
 70
     0
  3
$CONSTRUCTION
 72
    65
 73
     4
 40
0.3
 49
0.2
 74
     0
 49
-0.05
 74
     0
 49
0.0
 74
     0
 49
-0.05
 74
     0
  0
LTYPE
  5
2F
100
AcDbSymbolTableRecord
100
AcDbLinetypeTableRecord
  2
$SNAPEXT
 70
     0
  3
$SNAPEXT
 72
    65
 73
     2
 40
0.04
 49
0.02
 74
     0
 49
-0.02
 74
     0
  0
ENDTAB
  0
TABLE
  2
LAYER
  5
2
100
AcDbSymbolTable
 70
     2
  0
LAYER
  5
14
100
AcDbSymbolTableRecord
100
AcDbLayerTableRecord
  2
0
 70
     0
 62
     7
  6
Continuous
290
     1
370
     0
390
0
1001
TCAD
1000
TCW_LAYER_ORDER
1002
{
1071
        0
1002
}
  0
LAYER
  5
30
100
AcDbSymbolTableRecord
100
AcDbLayerTableRecord
  2
restraint
 70
     0
 62
     7
  6
Continuous
290
     1
370
     0
390
0
1001
TCAD
1000
TCW_LAYER_ORDER
1002
{
1071
        0
1002
}
  0
ENDTAB
  0
TABLE
  2
STYLE
  5
3
100
AcDbSymbolTable
 70
     3
  0
STYLE
  5
17
100
AcDbSymbolTableRecord
100
AcDbTextStyleTableRecord
  2
STANDARD
 70
     0
 40
0.0
 41
1.0
 50
0.0
 71
     0
 42
6.0
  3
TIMES.TTF
  4

1001
ACAD
1000
Times New Roman
1071
      290
  0
STYLE
  5
37
100
AcDbSymbolTableRecord
100
AcDbTextStyleTableRecord
  2
_TCW_TXTSTY_1
 70
     0
 40
0.0
 41
1.02
 50
0.0
 71
     0
 42
3.048
  3
TIMES.TTF
  4

1001
ACAD
1000
Times New Roman
1071
      290
  0
STYLE
  5
3A
100
AcDbSymbolTableRecord
100
AcDbTextStyleTableRecord
  2
_TCW_TXTSTY_2
 70
     0
 40
0.0
 41
1.01
 50
0.0
 71
     0
 42
3.048
  3
TIMES.TTF
  4

1001
ACAD
1000
Times New Roman
1071
      290
  0
ENDTAB
  0
TABLE
  2
VIEW
  5
5
100
AcDbSymbolTable
 70
     1
  0
VIEW
  5
31
100
AcDbSymbolTableRecord
100
AcDbViewTableRecord
  2
View_0
 70
     0
 40
1079.5
 10
698.5
 20
539.75
 41
1397.0
 11
0.0
 21
0.0
 31
25.4
 12
0.0
 22
0.0
 32
25.4
 42
50.0
 43
0.0
 44
0.0
 50
0.0
 71
     0
281
     0
 72
     0
110
0.0
120
0.0
130
0.0
111
1.0
121
0.0
131
0.0
112
0.0
122
1.0
132
0.0
  0
ENDTAB
  0
TABLE
  2
UCS
  5
6
100
AcDbSymbolTable
 70
     0
  0
ENDTAB
  0
TABLE
  2
APPID
  5
8
100
AcDbSymbolTable
 70
     2
  0
APPID
  5
16
100
AcDbSymbolTableRecord
100
AcDbRegAppTableRecord
  2
ACAD
 70
     0
  0
APPID
  5
23
100
AcDbSymbolTableRecord
100
AcDbRegAppTableRecord
  2
TCAD
 70
     0
  0
ENDTAB
  0
TABLE
  2
DIMSTYLE
  5
9
100
AcDbSymbolTable
 70
     1
100
AcDbDimStyleTable
 71
     0
  0
DIMSTYLE
105
18
100
AcDbSymbolTableRecord
100
AcDbDimStyleTableRecord
  2
STANDARD
 70
     0
  3

  4

 40
1.0
 41
5.0
 42
0.0
 43
1.875
 44
0.0
 45
0.01
 46
0.0
 47
0.0
 48
0.0
 71
     0
 72
     0
 73
     0
 74
     0
 75
     0
 76
     0
 77
     0
 78
     0
 79
     0
140
6.0
141
0.09
142
0.0
143
1.0
144
1.0
145
0.0
146
1.0
147
0.02
148
0.001
170
     0
171
     3
172
     0
173
     0
174
     0
175
     0
176
     7
177
     7
178
     7
179
     2
271
     2
272
     2
273
     2
274
     3
275
     0
276
     0
277
     2
278
    46
279
     0
280
     0
281
     0
282
     0
283
     1
284
     0
285
     0
286
     0
288
     0
340
17
341
0
342
32
343
0
344
0
371
    -2
372
    -2
  0
ENDTAB
  0
TABLE
  2
BLOCK_RECORD
  5
1
100
AcDbSymbolTable
 70
     5
  0
BLOCK_RECORD
  5
A
100
AcDbSymbolTableRecord
100
AcDbBlockTableRecord
  2
*MODEL_SPACE
340
E5
  0
BLOCK_RECORD
  5
B
100
AcDbSymbolTableRecord
100
AcDbBlockTableRecord
  2
*PAPER_SPACE
340
E8
  0
BLOCK_RECORD
  5
32
100
AcDbSymbolTableRecord
100
AcDbBlockTableRecord
  2
TC_DIMARROW_FILLED30
340
0
  0
BLOCK_RECORD
  5
94
100
AcDbSymbolTableRecord
100
AcDbBlockTableRecord
  2
*D1
340
0
  0
BLOCK_RECORD
  5
A4
100
AcDbSymbolTableRecord
100
AcDbBlockTableRecord
  2
*D2
340
0
  0
BLOCK_RECORD
  5
B3
100
AcDbSymbolTableRecord
100
AcDbBlockTableRecord
  2
*D3
340
0
  0
BLOCK_RECORD
  5
C2
100
AcDbSymbolTableRecord
100
AcDbBlockTableRecord
  2
*D4
340
0
  0
ENDTAB
  0
ENDSEC
  0
SECTION
  2
BLOCKS
  0
BLOCK
  5
D
100
AcDbEntity
  8
0
100
AcDbBlockBegin
  2
*MODEL_SPACE
 70
     0
 10
0.0
 20
0.0
 30
0.0
  3
*MODEL_SPACE
  1

  0
ENDBLK
  5
E
100
AcDbEntity
  8
0
100
AcDbBlockEnd
  0
BLOCK
  5
F
100
AcDbEntity
 67
     1
  8
0
100
AcDbBlockBegin
  2
*PAPER_SPACE
 70
     0
 10
0.0
 20
0.0
 30
0.0
  3
*PAPER_SPACE
  1

  0
ENDBLK
  5
10
100
AcDbEntity
 67
     1
  8
0
100
AcDbBlockEnd
  0
BLOCK
  5
33
100
AcDbEntity
  8
0
100
AcDbBlockBegin
  2
TC_DIMARROW_FILLED30
 70
     0
 10
0.0
 20
0.0
 30
0.0
  3
TC_DIMARROW_FILLED30
  1

  0
SOLID
  5
34
100
AcDbEntity
  8
0
  6
ByBlock
 62
     0
100
AcDbTrace
 10
0.0
 20
0.0
 30
0.0
 11
-1.0
 21
0.267949
 31
0.0
 12
-1.0
 22
-0.267949
 32
0.0
 13
-1.0
 23
-0.267949
 33
0.0
  0
ENDBLK
  5
35
100
AcDbEntity
  8
0
100
AcDbBlockEnd
  0
BLOCK
  5
95
100
AcDbEntity
  8
0
100
AcDbBlockBegin
  2
*D1
 70
     1
 10
0.0
 20
0.0
 30
0.0
  3
*D1
  1

  0
LINE
  5
96
100
AcDbEntity
  8
0
370
     0
  6
Continuous
 62
     7
100
AcDbLine
 10
659.486106
 20
694.398216
 30
0.0
 11
659.486106
 21
717.980671
 31
0.0
  0
LINE
  5
97
100
AcDbEntity
  8
0
370
     0
  6
Continuous
 62
     7
100
AcDbLine
 10
649.486106
 20
694.398216
 30
0.0
 11
649.486106
 21
717.980671
 31
0.0
  0
LWPOLYLINE
  5
98
100
AcDbEntity
  8
0
  6
Continuous
 62
     7
100
AcDbPolyline
 90
        2
 70
     0
 10
669.486106
 20
717.980671
 10
664.486106
 20
717.980671
  0
LWPOLYLINE
  5
99
100
AcDbEntity
  8
0
  6
Continuous
 62
     7
100
AcDbPolyline
 90
        2
 70
     0
 10
664.486106
 20
717.980671
 40
0.0
 41
0.0
 10
664.486106
 20
717.980671
 40
0.0
 41
0.0
  0
LWPOLYLINE
  5
9A
100
AcDbEntity
  8
0
  6
Continuous
 62
     7
100
AcDbPolyline
 90
        4
 70
     0
 10
635.466106
 20
717.980671
 40
0.0
 41
0.0
 10
639.486106
 20
717.980671
 40
0.0
 41
0.0
 10
644.486106
 20
717.980671
 40
0.0
 41
0.0
 10
644.486106
 20
717.980671
 40
0.0
 41
0.0
  0
LWPOLYLINE
  5
9D
100
AcDbEntity
  8
0
  6
Continuous
 62
     7
100
AcDbPolyline
 90
        4
 70
     0
 10
649.486106
 20
717.980671
 40
0.0
 41
0.0
 10
644.486106
 20
718.814004
 40
0.0
 41
0.0
 10
644.486106
 20
717.147338
 40
0.0
 41
0.0
 10
649.486106
 20
717.980671
 40
0.0
 41
0.0
  0
HATCH
  5
9B
100
AcDbEntity
  8
0
  6
Continuous
 62
     7
100
AcDbHatch
 10
0.0
 20
0.0
 30
0.0
210
0.0
220
0.0
230
1.0
  2
SOLID
 70
     1
 71
     1
 91
        1
 92
        3
 72
     0
 73
     1
 93
        3
 10
649.48610633252224
 20
717.98067088660673
 10
644.48610633252224
 20
718.8140042199401
 10
644.48610633252224
 20
717.14733755327336
 97
        1
330
9C
 75
     0
 76
     0
 98
        0
  0
LWPOLYLINE
  5
A0
100
AcDbEntity
  8
0
  6
Continuous
 62
     7
100
AcDbPolyline
 90
        4
 70
     0
 10
659.486106
 20
717.980671
 40
0.0
 41
0.0
 10
664.486106
 20
717.147338
 40
0.0
 41
0.0
 10
664.486106
 20
718.814004
 40
0.0
 41
0.0
 10
659.486106
 20
717.980671
 40
0.0
 41
0.0
  0
HATCH
  5
9E
100
AcDbEntity
  8
0
  6
Continuous
 62
     7
100
AcDbHatch
 10
0.0
 20
0.0
 30
0.0
210
0.0
220
0.0
230
1.0
  2
SOLID
 70
     1
 71
     1
 91
        1
 92
        3
 72
     0
 73
     1
 93
        3
 10
659.48610633252224
 20
717.98067088660684
 10
664.48610633252224
 20
717.14733755327347
 10
664.48610633252224
 20
718.81400421994022
 97
        1
330
9F
 75
     0
 76
     0
 98
        0
  0
TEXT
  5
A1
100
AcDbEntity
  8
0
  6
Continuous
 62
     7
100
AcDbText
 10
614.148646
 20
714.980671
 30
0.0
 40
6.0
  1
10.00
 72
     1
 11
624.307376
 21
717.980671
 31
0.0
100
AcDbText
 73
     2
  0
ENDBLK
  5
A2
100
AcDbEntity
  8
0
100
AcDbBlockEnd
  0
BLOCK
  5
A5
100
AcDbEntity
  8
0
100
AcDbBlockBegin
  2
*D2
 70
     1
 10
0.0
 20
0.0
 30
0.0
  3
*D2
  1

  0
LINE
  5
A6
100
AcDbEntity
  8
0
370
     0
  6
Continuous
 62
     7
100
AcDbLine
 10
581.986106
 20
626.898216
 30
0.0
 11
581.986106
 21
738.416389
 31
0.0
  0
LINE
  5
A7
100
AcDbEntity
  8
0
370
     0
  6
Continuous
 62
     7
100
AcDbLine
 10
786.986106
 20
626.898216
 30
0.0
 11
786.986106
 21
738.416389
 31
0.0
  0
LWPOLYLINE
  5
A8
100
AcDbEntity
  8
0
  6
Continuous
 62
     7
100
AcDbPolyline
 90
        4
 70
     0
 10
586.986106
 20
738.416389
 10
586.986106
 20
738.416389
 10
586.986106
 20
738.416389
 10
671.069881
 20
738.416389
  0
LWPOLYLINE
  5
A9
100
AcDbEntity
  8
0
  6
Continuous
 62
     7
100
AcDbPolyline
 90
        4
 70
     0
 10
781.986106
 20
738.416389
 10
781.986106
 20
738.416389
 10
781.986106
 20
738.416389
 10
697.902332
 20
738.416389
  0
LWPOLYLINE
  5
AC
100
AcDbEntity
  8
0
  6
Continuous
 62
     7
100
AcDbPolyline
 90
        4
 70
     0
 10
581.986106
 20
738.416389
 40
0.0
 41
0.0
 10
586.986106
 20
737.583055
 40
0.0
 41
0.0
 10
586.986106
 20
739.249722
 40
0.0
 41
0.0
 10
581.986106
 20
738.416389
 40
0.0
 41
0.0
  0
HATCH
  5
AA
100
AcDbEntity
  8
0
  6
Continuous
 62
     7
100
AcDbHatch
 10
0.0
 20
0.0
 30
0.0
210
0.0
220
0.0
230
1.0
  2
SOLID
 70
     1
 71
     1
 91
        1
 92
        3
 72
     0
 73
     1
 93
        3
 10
581.98610633252213
 20
738.41638856597899
 10
586.98610633252213
 20
737.58305523264562
 10
586.98610633252213
 20
739.24972189931236
 97
        1
330
AB
 75
     0
 76
     0
 98
        0
  0
LWPOLYLINE
  5
AF
100
AcDbEntity
  8
0
  6
Continuous
 62
     7
100
AcDbPolyline
 90
        4
 70
     0
 10
786.986106
 20
738.416389
 40
0.0
 41
0.0
 10
781.986106
 20
739.249722
 40
0.0
 41
0.0
 10
781.986106
 20
737.583055
 40
0.0
 41
0.0
 10
786.986106
 20
738.416389
 40
0.0
 41
0.0
  0
HATCH
  5
AD
100
AcDbEntity
  8
0
  6
Continuous
 62
     7
100
AcDbHatch
 10
0.0
 20
0.0
 30
0.0
210
0.0
220
0.0
230
1.0
  2
SOLID
 70
     1
 71
     1
 91
        1
 92
        3
 72
     0
 73
     1
 93
        3
 10
786.98610633252224
 20
738.41638856597922
 10
781.98610633252224
 20
739.24972189931259
 10
781.98610633252224
 20
737.58305523264585
 97
        1
330
AE
 75
     0
 76
     0
 98
        0
  0
TEXT
  5
B0
100
AcDbEntity
  8
0
  6
Continuous
 62
     7
100
AcDbText
 10
672.069881
 20
735.416389
 30
0.0
 40
6.0
  1
205.00
 72
     1
 11
684.486106
 21
738.416389
 31
0.0
100
AcDbText
 73
     2
  0
ENDBLK
  5
B1
100
AcDbEntity
  8
0
100
AcDbBlockEnd
  0
BLOCK
  5
B4
100
AcDbEntity
  8
0
100
AcDbBlockBegin
  2
*D3
 70
     1
 10
0.0
 20
0.0
 30
0.0
  3
*D3
  1

  0
LINE
  5
B5
100
AcDbEntity
  8
0
370
     0
  6
Continuous
 62
     7
100
AcDbLine
 10
719.486106
 20
694.398216
 30
0.0
 11
822.157529
 21
694.398216
 31
0.0
  0
LINE
  5
B6
100
AcDbEntity
  8
0
370
     0
  6
Continuous
 62
     7
100
AcDbLine
 10
719.486106
 20
489.398216
 30
0.0
 11
822.157529
 21
489.398216
 31
0.0
  0
LWPOLYLINE
  5
B7
100
AcDbEntity
  8
0
  6
Continuous
 62
     7
100
AcDbPolyline
 90
        4
 70
     0
 10
822.157529
 20
689.398216
 10
822.157529
 20
689.398216
 10
822.157529
 20
689.398216
 10
822.157529
 20
605.314441
  0
LWPOLYLINE
  5
B8
100
AcDbEntity
  8
0
  6
Continuous
 62
     7
100
AcDbPolyline
 90
        4
 70
     0
 10
822.157529
 20
494.398216
 10
822.157529
 20
494.398216
 10
822.157529
 20
494.398216
 10
822.157529
 20
578.48199
  0
LWPOLYLINE
  5
BB
100
AcDbEntity
  8
0
  6
Continuous
 62
     7
100
AcDbPolyline
 90
        4
 70
     0
 10
822.157529
 20
694.398216
 40
0.0
 41
0.0
 10
821.324195
 20
689.398216
 40
0.0
 41
0.0
 10
822.990862
 20
689.398216
 40
0.0
 41
0.0
 10
822.157529
 20
694.398216
 40
0.0
 41
0.0
  0
HATCH
  5
B9
100
AcDbEntity
  8
0
  6
Continuous
 62
     7
100
AcDbHatch
 10
0.0
 20
0.0
 30
0.0
210
0.0
220
0.0
230
1.0
  2
SOLID
 70
     1
 71
     1
 91
        1
 92
        3
 72
     0
 73
     1
 93
        3
 10
822.15752860827195
 20
694.39821572027756
 10
821.32419527493857
 20
689.39821572027756
 10
822.99086194160532
 20
689.39821572027756
 97
        1
330
BA
 75
     0
 76
     0
 98
        0
  0
LWPOLYLINE
  5
BE
100
AcDbEntity
  8
0
  6
Continuous
 62
     7
100
AcDbPolyline
 90
        4
 70
     0
 10
822.157529
 20
489.398216
 40
0.0
 41
0.0
 10
822.990862
 20
494.398216
 40
0.0
 41
0.0
 10
821.324195
 20
494.398216
 40
0.0
 41
0.0
 10
822.157529
 20
489.398216
 40
0.0
 41
0.0
  0
HATCH
  5
BC
100
AcDbEntity
  8
0
  6
Continuous
 62
     7
100
AcDbHatch
 10
0.0
 20
0.0
 30
0.0
210
0.0
220
0.0
230
1.0
  2
SOLID
 70
     1
 71
     1
 91
        1
 92
        3
 72
     0
 73
     1
 93
        3
 10
822.15752860827206
 20
489.39821572027705
 10
822.99086194160543
 20
494.39821572027705
 10
821.32419527493869
 20
494.39821572027705
 97
        1
330
BD
 75
     0
 76
     0
 98
        0
  0
TEXT
  5
BF
100
AcDbEntity
  8
0
  6
Continuous
 62
     7
100
AcDbText
 10
825.157529
 20
579.48199
 30
0.0
 40
6.0
  1
205.00
 50
90.0
 72
     1
 11
822.157529
 21
591.898216
 31
0.0
100
AcDbText
 73
     2
  0
ENDBLK
  5
C0
100
AcDbEntity
  8
0
100
AcDbBlockEnd
  0
BLOCK
  5
C3
100
AcDbEntity
  8
0
100
AcDbBlockBegin
  2
*D4
 70
     1
 10
0.0
 20
0.0
 30
0.0
  3
*D4
  1

  0
LINE
  5
C4
100
AcDbEntity
  8
0
370
     0
  6
Continuous
 62
     7
100
AcDbLine
 10
608.472127
 20
522.955305
 30
0.0
 11
593.613625
 21
508.096802
 31
0.0
  0
LINE
  5
C5
100
AcDbEntity
  8
0
370
     0
  6
Continuous
 62
     7
100
AcDbLine
 10
601.40106
 20
530.026372
 30
0.0
 11
586.542557
 21
515.16787
 31
0.0
  0
LWPOLYLINE
  5
C6
100
AcDbEntity
  8
0
  6
Continuous
 62
     7
100
AcDbPolyline
 90
        2
 70
     0
 10
600.684693
 20
501.025735
 10
597.149159
 20
504.561269
  0
LWPOLYLINE
  5
C7
100
AcDbEntity
  8
0
  6
Continuous
 62
     7
100
AcDbPolyline
 90
        2
 70
     0
 10
597.149159
 20
504.561269
 40
0.0
 41
0.0
 10
597.149159
 20
504.561269
 40
0.0
 41
0.0
  0
LWPOLYLINE
  5
C8
100
AcDbEntity
  8
0
  6
Continuous
 62
     7
100
AcDbPolyline
 90
        4
 70
     0
 10
576.62892
 20
525.081507
 40
0.0
 41
0.0
 10
579.47149
 20
522.238938
 40
0.0
 41
0.0
 10
583.007024
 20
518.703404
 40
0.0
 41
0.0
 10
583.007024
 20
518.703404
 40
0.0
 41
0.0
  0
LWPOLYLINE
  5
CB
100
AcDbEntity
  8
0
  6
Continuous
 62
     7
100
AcDbPolyline
 90
        4
 70
     0
 10
586.542557
 20
515.16787
 40
0.0
 41
0.0
 10
583.596279
 20
519.29266
 40
0.0
 41
0.0
 10
582.417768
 20
518.114149
 40
0.0
 41
0.0
 10
586.542557
 20
515.16787
 40
0.0
 41
0.0
  0
HATCH
  5
C9
100
AcDbEntity
  8
0
  6
Continuous
 62
     7
100
AcDbHatch
 10
0.0
 20
0.0
 30
0.0
210
0.0
220
0.0
230
1.0
  2
SOLID
 70
     1
 71
     1
 91
        1
 92
        3
 72
     0
 73
     1
 93
        3
 10
586.5425574518689
 20
515.16787027522003
 10
583.59627919692491
 20
519.29265983214157
 10
582.41776789494736
 20
518.11414853016402
 97
        1
330
CA
 75
     0
 76
     0
 98
        0
  0
LWPOLYLINE
  5
CE
100
AcDbEntity
  8
0
  6
Continuous
 62
     7
100
AcDbPolyline
 90
        4
 70
     0
 10
593.613625
 20
508.096802
 40
0.0
 41
0.0
 10
596.559904
 20
503.972013
 40
0.0
 41
0.0
 10
597.738415
 20
505.150524
 40
0.0
 41
0.0
 10
593.613625
 20
508.096802
 40
0.0
 41
0.0
  0
HATCH
  5
CC
100
AcDbEntity
  8
0
  6
Continuous
 62
     7
100
AcDbHatch
 10
0.0
 20
0.0
 30
0.0
210
0.0
220
0.0
230
1.0
  2
SOLID
 70
     1
 71
     1
 91
        1
 92
        3
 72
     0
 73
     1
 93
        3
 10
593.61362526373421
 20
508.09680246335472
 10
596.5599035186782
 20
503.97201290643318
 10
597.73841482065575
 20
505.15052420841073
 97
        1
330
CD
 75
     0
 76
     0
 98
        0
  0
TEXT
  5
CF
100
AcDbEntity
  8
0
  6
Continuous
 62
     7
100
AcDbText
 10
559.433879
 20
538.033908
 30
0.0
 40
6.0
  1
10.00
 50
-45.0
 72
     1
 11
568.738507
 21
532.971921
 31
0.0
100
AcDbText
 73
     2
  0
ENDBLK
  5
D0
100
AcDbEntity
  8
0
100
AcDbBlockEnd
  0
ENDSEC
  0
SECTION
  2
ENTITIES
  0
VIEWPORT
  5
E6
100
AcDbEntity
 67
     1
  8
0
100
AcDbViewport
 10
5.5
 20
4.25
 30
0.0
 40
11.0
 41
8.5
 68
     1
 69
     1
 12
5.5
 22
4.25
 13
0.0
 23
0.0
 14
0.5
 24
0.5
 15
0.5
 25
0.5
 16
0.0
 26
0.0
 36
1.0
 17
0.0
 27
0.0
 37
0.0
 42
50.0
 43
0.0
 44
0.0
 45
8.5
 50
0.0
 51
0.0
 72
   100
 90
    32800
340
0
  1

281
     0
 71
     0
 74
     1
110
0.0
120
0.0
130
0.0
111
1.0
121
0.0
131
0.0
112
0.0
122
1.0
132
0.0
345
0
346
0
 79
     0
146
0.0
  0
VIEWPORT
  5
E7
100
AcDbEntity
 67
     1
  8
0
  6
Continuous
100
AcDbViewport
 10
5.5
 20
4.25
 30
0.0
 40
11.0
 41
8.5
 68
     2
 69
     2
 12
698.5
 22
539.75
 13
0.0
 23
0.0
 14
0.5
 24
0.5
 15
0.5
 25
0.5
 16
0.0
 26
0.0
 36
25.4
 17
0.0
 27
0.0
 37
25.4
 42
50.0
 43
0.0
 44
0.0
 45
1079.499984
 50
0.0
 51
0.0
 72
   100
341
30
 90
    32800
340
0
  1

281
     0
 71
     0
 74
     1
110
0.0
120
0.0
130
0.0
111
1.0
121
0.0
131
0.0
112
0.0
122
1.0
132
0.0
345
0
346
0
 79
     0
146
0.0
  0
TEXT
  5
36
102
{ACAD_REACTORS
330
47
102
}
100
AcDbEntity
  8
0
  6
Continuous
 62
     7
100
AcDbText
 10
1043.400678
 20
288.48752
 30
0.0
 40
6.096
  1
Rev
 72
     5
 11
1058.179267
 21
288.48752
 31
0.0
100
AcDbText
1001
TCAD
1000
TCW40_TEXT
1002
{
1000
Times New Roman
1070
     0
1070
   257
1002
}
  0
TEXT
  5
38
102
{ACAD_REACTORS
330
47
102
}
100
AcDbEntity
  8
0
  6
Continuous
 62
     7
100
AcDbText
 10
980.868936
 20
268.357149
 30
0.0
 40
3.048
  1
Date:
 41
1.02
  7
_TCW_TXTSTY_1
 72
     5
 11
990.997578
 21
268.357149
 31
0.0
100
AcDbText
1001
TCAD
1000
TCW40_TEXT
1002
{
1000
Times New Roman
1070
     0
1070
   257
1002
}
  0
LINE
  5
39
102
{ACAD_REACTORS
330
47
102
}
100
AcDbEntity
  8
0
370
     0
  6
Continuous
 62
     7
100
AcDbLine
 10
979.796139
 20
274.319997
 30
0.0
 11
1037.572279
 21
274.319997
 31
0.0
  0
TEXT
  5
3B
102
{ACAD_REACTORS
330
47
102
}
100
AcDbEntity
  8
0
  6
Continuous
 62
     7
100
AcDbText
 10
980.86985
 20
277.08672
 30
0.0
 40
3.048
  1
Drawn By:
 41
1.01
  7
_TCW_TXTSTY_2
 72
     5
 11
1001.322002
 21
277.08672
 31
0.0
100
AcDbText
1001
TCAD
1000
TCW40_TEXT
1002
{
1000
Times New Roman
1070
     0
1070
   257
1002
}
  0
TEXT
  5
3C
102
{ACAD_REACTORS
330
47
102
}
100
AcDbEntity
  8
0
  6
Continuous
 62
     7
100
AcDbText
 10
928.084033
 20
270.557948
 30
0.0
 40
6.096
  1
Pg___of___
 72
     5
 11
973.020082
 21
270.557948
 31
0.0
100
AcDbText
1001
TCAD
1000
TCW40_TEXT
1002
{
1000
Times New Roman
1070
     0
1070
   257
1002
}
  0
LINE
  5
3D
102
{ACAD_REACTORS
330
47
102
}
100
AcDbEntity
  8
0
370
     0
  6
Continuous
 62
     7
100
AcDbLine
 10
979.796139
 20
283.209997
 30
0.0
 11
979.796139
 21
265.429997
 31
0.0
  0
LINE
  5
3E
102
{ACAD_REACTORS
330
47
102
}
100
AcDbEntity
  8
0
370
     0
  6
Continuous
 62
     7
100
AcDbLine
 10
1037.572279
 20
283.209997
 30
0.0
 11
1037.572279
 21
265.429997
 31
0.0
  0
LINE
  5
3F
102
{ACAD_REACTORS
330
47
102
}
100
AcDbEntity
  8
0
370
     0
  6
Continuous
 62
     7
100
AcDbLine
 10
1037.572279
 20
300.989997
 30
0.0
 11
1037.572279
 21
283.209997
 31
0.0
  0
LWPOLYLINE
  5
40
102
{ACAD_REACTORS
330
47
102
}
100
AcDbEntity
  8
0
  6
Continuous
 62
     7
100
AcDbPolyline
 90
        4
 70
     0
 10
1037.572279
 20
300.989997
 10
922.02
 20
300.989997
 10
922.02
 20
283.209997
 10
1037.572279
 20
283.209997
  0
LWPOLYLINE
  5
41
102
{ACAD_REACTORS
330
47
102
}
100
AcDbEntity
  8
0
  6
Continuous
 62
     7
100
AcDbPolyline
 90
        4
 70
     0
 10
1037.572279
 20
283.209997
 10
1064.26
 20
283.209997
 10
1064.26
 20
300.989997
 10
1037.572279
 20
300.989997
  0
TEXT
  5
42
102
{ACAD_REACTORS
330
47
102
}
100
AcDbEntity
  8
0
  6
Continuous
 62
     7
100
AcDbText
 10
943.706476
 20
305.291853
 30
0.0
 40
6.096
  1
Inland Technical Services
 72
     5
 11
1038.976634
 21
305.291853
 31
0.0
100
AcDbText
1001
TCAD
1000
TCW40_TEXT
1002
{
1000
Times New Roman
1070
     0
1070
   257
1002
}
  0
LWPOLYLINE
  5
43
102
{ACAD_REACTORS
330
47
102
}
100
AcDbEntity
  8
0
  6
Continuous
 62
     7
100
AcDbPolyline
 90
        4
 70
     1
 10
922.02
 20
316.229997
 10
1064.26
 20
316.229997
 10
1064.26
 20
300.989997
 10
922.02
 20
300.989997
  0
LWPOLYLINE
  5
44
102
{ACAD_REACTORS
330
47
102
}
100
AcDbEntity
  8
0
  6
Continuous
 62
     7
100
AcDbPolyline
 90
        6
 70
     0
 10
922.02
 20
300.989997
 10
922.02
 20
316.229997
 10
1064.26
 20
316.229997
 10
1064.26
 20
265.429997
 10
922.02
 20
265.429997
 10
922.02
 20
300.989997
  0
LINE
  5
45
102
{ACAD_REACTORS
330
47
102
}
100
AcDbEntity
  8
0
370
     0
  6
Continuous
 62
     7
100
AcDbLine
 10
1037.572279
 20
265.429997
 30
0.0
 11
922.02
 21
265.429997
 31
0.0
  0
LWPOLYLINE
  5
46
102
{ACAD_REACTORS
330
47
102
}
100
AcDbEntity
  8
0
  6
Continuous
 62
     7
100
AcDbPolyline
 90
        6
 70
     0
 10
922.02
 20
265.429997
 10
332.74
 20
265.429997
 10
332.74
 20
814.070003
 10
1064.26
 20
814.070003
 10
1064.26
 20
265.429997
 10
1037.572279
 20
265.429997
  0
TEXT
  5
48
100
AcDbEntity
  8
0
  6
Continuous
 62
     7
100
AcDbText
 10
926.736172
 20
289.811456
 30
0.0
 40
6.096
  1
MRI Phantom - Tube array
 72
     5
 11
1026.611479
 21
289.811456
 31
0.0
100
AcDbText
1001
TCAD
1000
TCW40_TEXT
1002
{
1000
Times New Roman
1070
     0
1070
   257
1002
}
  0
TEXT
  5
49
100
AcDbEntity
  8
0
  6
Continuous
 62
     7
100
AcDbText
 10
993.776104
 20
267.796452
 30
0.0
 40
3.7248
  1
9/9/2010
 72
     5
 11
1013.708493
 21
267.796452
 31
0.0
100
AcDbText
1001
TCAD
1000
TCW40_TEXT
1002
{
1000
Times New Roman
1070
     0
1070
   257
1002
}
  0
CIRCLE
  5
4A
102
{ACAD_REACTORS
330
52
102
}
100
AcDbEntity
  8
0
370
     0
  6
Continuous
 62
     7
100
AcDbCircle
 10
649.486106
 20
694.398216
 30
0.0
 40
2.75
  0
CIRCLE
  5
4B
102
{ACAD_REACTORS
330
52
102
}
100
AcDbEntity
  8
0
370
     0
  6
Continuous
 62
     7
100
AcDbCircle
 10
659.486106
 20
694.398216
 30
0.0
 40
2.75
  0
CIRCLE
  5
4C
102
{ACAD_REACTORS
330
52
102
}
100
AcDbEntity
  8
0
370
     0
  6
Continuous
 62
     7
100
AcDbCircle
 10
669.486106
 20
694.398216
 30
0.0
 40
2.75
  0
CIRCLE
  5
4D
102
{ACAD_REACTORS
330
52
102
}
100
AcDbEntity
  8
0
370
     0
  6
Continuous
 62
     7
100
AcDbCircle
 10
679.486106
 20
694.398216
 30
0.0
 40
2.75
  0
CIRCLE
  5
4E
102
{ACAD_REACTORS
330
52
102
}
100
AcDbEntity
  8
0
370
     0
  6
Continuous
 62
     7
100
AcDbCircle
 10
689.486106
 20
694.398216
 30
0.0
 40
2.75
  0
CIRCLE
  5
4F
102
{ACAD_REACTORS
330
52
102
}
100
AcDbEntity
  8
0
370
     0
  6
Continuous
 62
     7
100
AcDbCircle
 10
699.486106
 20
694.398216
 30
0.0
 40
2.75
  0
CIRCLE
  5
50
102
{ACAD_REACTORS
330
52
102
}
100
AcDbEntity
  8
0
370
     0
  6
Continuous
 62
     7
100
AcDbCircle
 10
709.486106
 20
694.398216
 30
0.0
 40
2.75
  0
CIRCLE
  5
51
102
{ACAD_REACTORS
330
52
102
}
100
AcDbEntity
  8
0
370
     0
  6
Continuous
 62
     7
100
AcDbCircle
 10
719.486106
 20
694.398216
 30
0.0
 40
2.75
  0
LWPOLYLINE
  5
53
100
AcDbEntity
  8
0
  6
Continuous
 62
     7
 48
0.1
100
AcDbPolyline
 90
        8
 70
     1
 10
794.486106
 20
546.334724
 10
794.486106
 20
637.461708
 10
730.049598
 20
701.898216
 10
638.922614
 20
701.898216
 10
574.486106
 20
637.461708
 10
574.486106
 20
546.334724
 10
638.922614
 20
481.898216
 10
730.049598
 20
481.898216
  0
CIRCLE
  5
54
102
{ACAD_REACTORS
330
5C
102
}
100
AcDbEntity
  8
0
370
     0
  6
Continuous
 62
     7
100
AcDbCircle
 10
587.258924
 20
639.627923
 30
0.0
 40
2.75
  0
CIRCLE
  5
55
102
{ACAD_REACTORS
330
5C
102
}
100
AcDbEntity
  8
0
370
     0
  6
Continuous
 62
     7
100
AcDbCircle
 10
594.329992
 20
646.698991
 30
0.0
 40
2.75
  0
CIRCLE
  5
56
102
{ACAD_REACTORS
330
5C
102
}
100
AcDbEntity
  8
0
370
     0
  6
Continuous
 62
     7
100
AcDbCircle
 10
601.40106
 20
653.770059
 30
0.0
 40
2.75
  0
CIRCLE
  5
57
102
{ACAD_REACTORS
330
5C
102
}
100
AcDbEntity
  8
0
370
     0
  6
Continuous
 62
     7
100
AcDbCircle
 10
608.472127
 20
660.841127
 30
0.0
 40
2.75
  0
CIRCLE
  5
58
102
{ACAD_REACTORS
330
5C
102
}
100
AcDbEntity
  8
0
370
     0
  6
Continuous
 62
     7
100
AcDbCircle
 10
615.543195
 20
667.912195
 30
0.0
 40
2.75
  0
CIRCLE
  5
59
102
{ACAD_REACTORS
330
5C
102
}
100
AcDbEntity
  8
0
370
     0
  6
Continuous
 62
     7
100
AcDbCircle
 10
622.614263
 20
674.983263
 30
0.0
 40
2.75
  0
CIRCLE
  5
5A
102
{ACAD_REACTORS
330
5C
102
}
100
AcDbEntity
  8
0
370
     0
  6
Continuous
 62
     7
100
AcDbCircle
 10
629.685331
 20
682.05433
 30
0.0
 40
2.75
  0
CIRCLE
  5
5B
102
{ACAD_REACTORS
330
5C
102
}
100
AcDbEntity
  8
0
370
     0
  6
Continuous
 62
     7
100
AcDbCircle
 10
636.756399
 20
689.125398
 30
0.0
 40
2.75
  0
CIRCLE
  5
5D
102
{ACAD_REACTORS
330
65
102
}
100
AcDbEntity
  8
0
370
     0
  6
Continuous
 62
     7
100
AcDbCircle
 10
581.986106
 20
556.898216
 30
0.0
 40
2.75
  0
CIRCLE
  5
5E
102
{ACAD_REACTORS
330
65
102
}
100
AcDbEntity
  8
0
370
     0
  6
Continuous
 62
     7
100
AcDbCircle
 10
581.986106
 20
566.898216
 30
0.0
 40
2.75
  0
CIRCLE
  5
5F
102
{ACAD_REACTORS
330
65
102
}
100
AcDbEntity
  8
0
370
     0
  6
Continuous
 62
     7
100
AcDbCircle
 10
581.986106
 20
576.898216
 30
0.0
 40
2.75
  0
CIRCLE
  5
60
102
{ACAD_REACTORS
330
65
102
}
100
AcDbEntity
  8
0
370
     0
  6
Continuous
 62
     7
100
AcDbCircle
 10
581.986106
 20
586.898216
 30
0.0
 40
2.75
  0
CIRCLE
  5
61
102
{ACAD_REACTORS
330
65
102
}
100
AcDbEntity
  8
0
370
     0
  6
Continuous
 62
     7
100
AcDbCircle
 10
581.986106
 20
596.898216
 30
0.0
 40
2.75
  0
CIRCLE
  5
62
102
{ACAD_REACTORS
330
65
102
}
100
AcDbEntity
  8
0
370
     0
  6
Continuous
 62
     7
100
AcDbCircle
 10
581.986106
 20
606.898216
 30
0.0
 40
2.75
  0
CIRCLE
  5
63
102
{ACAD_REACTORS
330
65
102
}
100
AcDbEntity
  8
0
370
     0
  6
Continuous
 62
     7
100
AcDbCircle
 10
581.986106
 20
616.898216
 30
0.0
 40
2.75
  0
CIRCLE
  5
64
102
{ACAD_REACTORS
330
65
102
}
100
AcDbEntity
  8
0
370
     0
  6
Continuous
 62
     7
100
AcDbCircle
 10
581.986106
 20
626.898216
 30
0.0
 40
2.75
  0
CIRCLE
  5
66
102
{ACAD_REACTORS
330
6E
102
}
100
AcDbEntity
  8
0
370
     0
  6
Continuous
 62
     7
100
AcDbCircle
 10
636.756399
 20
494.671033
 30
0.0
 40
2.75
  0
CIRCLE
  5
67
102
{ACAD_REACTORS
330
6E
102
}
100
AcDbEntity
  8
0
370
     0
  6
Continuous
 62
     7
100
AcDbCircle
 10
629.685331
 20
501.742101
 30
0.0
 40
2.75
  0
CIRCLE
  5
68
102
{ACAD_REACTORS
330
6E
102
}
100
AcDbEntity
  8
0
370
     0
  6
Continuous
 62
     7
100
AcDbCircle
 10
622.614263
 20
508.813169
 30
0.0
 40
2.75
  0
CIRCLE
  5
69
102
{ACAD_REACTORS
330
6E
102
}
100
AcDbEntity
  8
0
370
     0
  6
Continuous
 62
     7
100
AcDbCircle
 10
615.543195
 20
515.884237
 30
0.0
 40
2.75
  0
CIRCLE
  5
6A
102
{ACAD_REACTORS
330
6E
102
}
100
AcDbEntity
  8
0
370
     0
  6
Continuous
 62
     7
100
AcDbCircle
 10
608.472127
 20
522.955305
 30
0.0
 40
2.75
  0
CIRCLE
  5
6B
102
{ACAD_REACTORS
330
6E
102
}
100
AcDbEntity
  8
0
370
     0
  6
Continuous
 62
     7
100
AcDbCircle
 10
601.40106
 20
530.026372
 30
0.0
 40
2.75
  0
CIRCLE
  5
6C
102
{ACAD_REACTORS
330
6E
102
}
100
AcDbEntity
  8
0
370
     0
  6
Continuous
 62
     7
100
AcDbCircle
 10
594.329992
 20
537.09744
 30
0.0
 40
2.75
  0
CIRCLE
  5
6D
102
{ACAD_REACTORS
330
6E
102
}
100
AcDbEntity
  8
0
370
     0
  6
Continuous
 62
     7
100
AcDbCircle
 10
587.258924
 20
544.168508
 30
0.0
 40
2.75
  0
CIRCLE
  5
6F
102
{ACAD_REACTORS
330
77
102
}
100
AcDbEntity
  8
0
370
     0
  6
Continuous
 62
     7
100
AcDbCircle
 10
719.486106
 20
489.398216
 30
0.0
 40
2.75
  0
CIRCLE
  5
70
102
{ACAD_REACTORS
330
77
102
}
100
AcDbEntity
  8
0
370
     0
  6
Continuous
 62
     7
100
AcDbCircle
 10
709.486106
 20
489.398216
 30
0.0
 40
2.75
  0
CIRCLE
  5
71
102
{ACAD_REACTORS
330
77
102
}
100
AcDbEntity
  8
0
370
     0
  6
Continuous
 62
     7
100
AcDbCircle
 10
699.486106
 20
489.398216
 30
0.0
 40
2.75
  0
CIRCLE
  5
72
102
{ACAD_REACTORS
330
77
102
}
100
AcDbEntity
  8
0
370
     0
  6
Continuous
 62
     7
100
AcDbCircle
 10
689.486106
 20
489.398216
 30
0.0
 40
2.75
  0
CIRCLE
  5
73
102
{ACAD_REACTORS
330
77
102
}
100
AcDbEntity
  8
0
370
     0
  6
Continuous
 62
     7
100
AcDbCircle
 10
679.486106
 20
489.398216
 30
0.0
 40
2.75
  0
CIRCLE
  5
74
102
{ACAD_REACTORS
330
77
102
}
100
AcDbEntity
  8
0
370
     0
  6
Continuous
 62
     7
100
AcDbCircle
 10
669.486106
 20
489.398216
 30
0.0
 40
2.75
  0
CIRCLE
  5
75
102
{ACAD_REACTORS
330
77
102
}
100
AcDbEntity
  8
0
370
     0
  6
Continuous
 62
     7
100
AcDbCircle
 10
659.486106
 20
489.398216
 30
0.0
 40
2.75
  0
CIRCLE
  5
76
102
{ACAD_REACTORS
330
77
102
}
100
AcDbEntity
  8
0
370
     0
  6
Continuous
 62
     7
100
AcDbCircle
 10
649.486106
 20
489.398216
 30
0.0
 40
2.75
  0
CIRCLE
  5
78
102
{ACAD_REACTORS
330
80
102
}
100
AcDbEntity
  8
0
370
     0
  6
Continuous
 62
     7
100
AcDbCircle
 10
781.713289
 20
544.168508
 30
0.0
 40
2.75
  0
CIRCLE
  5
79
102
{ACAD_REACTORS
330
80
102
}
100
AcDbEntity
  8
0
370
     0
  6
Continuous
 62
     7
100
AcDbCircle
 10
774.642221
 20
537.09744
 30
0.0
 40
2.75
  0
CIRCLE
  5
7A
102
{ACAD_REACTORS
330
80
102
}
100
AcDbEntity
  8
0
370
     0
  6
Continuous
 62
     7
100
AcDbCircle
 10
767.571153
 20
530.026372
 30
0.0
 40
2.75
  0
CIRCLE
  5
7B
102
{ACAD_REACTORS
330
80
102
}
100
AcDbEntity
  8
0
370
     0
  6
Continuous
 62
     7
100
AcDbCircle
 10
760.500085
 20
522.955305
 30
0.0
 40
2.75
  0
CIRCLE
  5
7C
102
{ACAD_REACTORS
330
80
102
}
100
AcDbEntity
  8
0
370
     0
  6
Continuous
 62
     7
100
AcDbCircle
 10
753.429017
 20
515.884237
 30
0.0
 40
2.75
  0
CIRCLE
  5
7D
102
{ACAD_REACTORS
330
80
102
}
100
AcDbEntity
  8
0
370
     0
  6
Continuous
 62
     7
100
AcDbCircle
 10
746.35795
 20
508.813169
 30
0.0
 40
2.75
  0
CIRCLE
  5
7E
102
{ACAD_REACTORS
330
80
102
}
100
AcDbEntity
  8
0
370
     0
  6
Continuous
 62
     7
100
AcDbCircle
 10
739.286882
 20
501.742101
 30
0.0
 40
2.75
  0
CIRCLE
  5
7F
102
{ACAD_REACTORS
330
80
102
}
100
AcDbEntity
  8
0
370
     0
  6
Continuous
 62
     7
100
AcDbCircle
 10
732.215814
 20
494.671033
 30
0.0
 40
2.75
  0
CIRCLE
  5
81
102
{ACAD_REACTORS
330
89
102
}
100
AcDbEntity
  8
0
370
     0
  6
Continuous
 62
     7
100
AcDbCircle
 10
786.986106
 20
626.898216
 30
0.0
 40
2.75
  0
CIRCLE
  5
82
102
{ACAD_REACTORS
330
89
102
}
100
AcDbEntity
  8
0
370
     0
  6
Continuous
 62
     7
100
AcDbCircle
 10
786.986106
 20
616.898216
 30
0.0
 40
2.75
  0
CIRCLE
  5
83
102
{ACAD_REACTORS
330
89
102
}
100
AcDbEntity
  8
0
370
     0
  6
Continuous
 62
     7
100
AcDbCircle
 10
786.986106
 20
606.898216
 30
0.0
 40
2.75
  0
CIRCLE
  5
84
102
{ACAD_REACTORS
330
89
102
}
100
AcDbEntity
  8
0
370
     0
  6
Continuous
 62
     7
100
AcDbCircle
 10
786.986106
 20
596.898216
 30
0.0
 40
2.75
  0
CIRCLE
  5
85
102
{ACAD_REACTORS
330
89
102
}
100
AcDbEntity
  8
0
370
     0
  6
Continuous
 62
     7
100
AcDbCircle
 10
786.986106
 20
586.898216
 30
0.0
 40
2.75
  0
CIRCLE
  5
86
102
{ACAD_REACTORS
330
89
102
}
100
AcDbEntity
  8
0
370
     0
  6
Continuous
 62
     7
100
AcDbCircle
 10
786.986106
 20
576.898216
 30
0.0
 40
2.75
  0
CIRCLE
  5
87
102
{ACAD_REACTORS
330
89
102
}
100
AcDbEntity
  8
0
370
     0
  6
Continuous
 62
     7
100
AcDbCircle
 10
786.986106
 20
566.898216
 30
0.0
 40
2.75
  0
CIRCLE
  5
88
102
{ACAD_REACTORS
330
89
102
}
100
AcDbEntity
  8
0
370
     0
  6
Continuous
 62
     7
100
AcDbCircle
 10
786.986106
 20
556.898216
 30
0.0
 40
2.75
  0
CIRCLE
  5
8A
102
{ACAD_REACTORS
330
92
102
}
100
AcDbEntity
  8
0
370
     0
  6
Continuous
 62
     7
100
AcDbCircle
 10
732.215814
 20
689.125398
 30
0.0
 40
2.75
  0
CIRCLE
  5
8B
102
{ACAD_REACTORS
330
92
102
}
100
AcDbEntity
  8
0
370
     0
  6
Continuous
 62
     7
100
AcDbCircle
 10
739.286882
 20
682.05433
 30
0.0
 40
2.75
  0
CIRCLE
  5
8C
102
{ACAD_REACTORS
330
92
102
}
100
AcDbEntity
  8
0
370
     0
  6
Continuous
 62
     7
100
AcDbCircle
 10
746.35795
 20
674.983263
 30
0.0
 40
2.75
  0
CIRCLE
  5
8D
102
{ACAD_REACTORS
330
92
102
}
100
AcDbEntity
  8
0
370
     0
  6
Continuous
 62
     7
100
AcDbCircle
 10
753.429017
 20
667.912195
 30
0.0
 40
2.75
  0
CIRCLE
  5
8E
102
{ACAD_REACTORS
330
92
102
}
100
AcDbEntity
  8
0
370
     0
  6
Continuous
 62
     7
100
AcDbCircle
 10
760.500085
 20
660.841127
 30
0.0
 40
2.75
  0
CIRCLE
  5
8F
102
{ACAD_REACTORS
330
92
102
}
100
AcDbEntity
  8
0
370
     0
  6
Continuous
 62
     7
100
AcDbCircle
 10
767.571153
 20
653.770059
 30
0.0
 40
2.75
  0
CIRCLE
  5
90
102
{ACAD_REACTORS
330
92
102
}
100
AcDbEntity
  8
0
370
     0
  6
Continuous
 62
     7
100
AcDbCircle
 10
774.642221
 20
646.698991
 30
0.0
 40
2.75
  0
CIRCLE
  5
91
102
{ACAD_REACTORS
330
92
102
}
100
AcDbEntity
  8
0
370
     0
  6
Continuous
 62
     7
100
AcDbCircle
 10
781.713289
 20
639.627923
 30
0.0
 40
2.75
  0
CIRCLE
  5
93
100
AcDbEntity
  8
0
370
     0
  6
Continuous
 62
     7
100
AcDbCircle
 10
684.486106
 20
591.898216
 30
0.0
 40
4.775
  0
DIMENSION
  5
A3
100
AcDbEntity
  8
0
  6
Continuous
 62
     7
100
AcDbDimension
  2
*D1
 10
649.486106
 20
717.980671
 30
0.0
 11
624.307376
 21
717.980671
 31
0.0
 71
     5
 72
     1
 41
1.0
 42
0.0
  1
<>
  3
STANDARD
100
AcDbAlignedDimension
 13
659.486106
 23
694.398216
 33
0.0
 14
649.486106
 24
694.398216
 34
0.0
100
AcDbRotatedDimension
1001
ACAD
1000
DSTYLE
1002
{
1002
}
  0
DIMENSION
  5
B2
100
AcDbEntity
  8
0
  6
Continuous
 62
     7
100
AcDbDimension
  2
*D2
 10
786.986106
 20
738.416389
 30
0.0
 11
684.486106
 21
738.416389
 31
0.0
 71
     5
 72
     1
 41
1.0
 42
0.0
  1
<>
  3
STANDARD
100
AcDbAlignedDimension
 13
581.986106
 23
626.898216
 33
0.0
 14
786.986106
 24
626.898216
 34
0.0
 50
180.0
100
AcDbRotatedDimension
1001
ACAD
1000
DSTYLE
1002
{
1002
}
  0
DIMENSION
  5
C1
100
AcDbEntity
  8
0
  6
Continuous
 62
     7
100
AcDbDimension
  2
*D3
 10
822.157529
 20
489.398216
 30
0.0
 11
822.157529
 21
591.898216
 31
0.0
 71
     5
 72
     1
 41
1.0
 42
0.0
  1
<>
  3
STANDARD
100
AcDbAlignedDimension
 13
719.486106
 23
694.398216
 33
0.0
 14
719.486106
 24
489.398216
 34
0.0
 50
-90.0
100
AcDbRotatedDimension
1001
ACAD
1000
DSTYLE
1002
{
1002
}
  0
DIMENSION
  5
D1
100
AcDbEntity
  8
0
  6
Continuous
 62
     7
100
AcDbDimension
  2
*D4
 10
586.542557
 20
515.16787
 30
0.0
 11
568.738507
 21
532.971921
 31
0.0
 70
     1
 71
     5
 72
     1
 41
1.0
 42
0.0
  1
<>
  3
STANDARD
100
AcDbAlignedDimension
 13
608.472127
 23
522.955305
 33
0.0
 14
601.40106
 24
530.026372
 34
0.0
 50
135.0
1001
ACAD
1000
DSTYLE
1002
{
1002
}
  0
MTEXT
  5
D2
100
AcDbEntity
  8
0
  6
Continuous
 62
     7
100
AcDbMText
 10
388.299002
 20
429.808508
 30
0.0
 40
6.0
 41
124.744268
 71
     1
 72
     1
  1
{Tubes (64 total):\PNMR spectrometer tube.\PNew Era Enterprises, Vineland NJ\PModel NE-LL5-8\PLength: 8" (203 mm, nom.)\POD: 4.960  0.006 mm\PWall: 0.40 mm nom.\PRoundness:  0.0025 mm\PWall variation:  0.010 mm\PCamber:  0.025 mm}
 73
     1
 44
1.0
1001
TCAD
1000
TCW40_TEXT
1002
{
1000
Times New Roman
1070
     0
1070
   257
1002
}
  0
LINE
  5
D3
102
{ACAD_REACTORS
330
E4
102
}
100
AcDbEntity
  8
0
370
     0
  6
Continuous
 62
     7
 48
0.1
100
AcDbLine
 10
789.171363
 20
390.568622
 30
0.0
 11
793.911363
 21
390.568622
 31
0.0
  0
LINE
  5
D4
102
{ACAD_REACTORS
330
E4
102
}
100
AcDbEntity
  8
0
370
     0
  6
Continuous
 62
     7
 48
0.1
100
AcDbLine
 10
793.911363
 20
390.568622
 30
0.0
 11
793.911363
 21
398.513619
 31
0.0
  0
LINE
  5
D5
102
{ACAD_REACTORS
330
E4
102
}
100
AcDbEntity
  8
0
370
     0
  6
Continuous
 62
     7
 48
0.1
100
AcDbLine
 10
793.911363
 20
398.513619
 30
0.0
 11
789.171363
 21
398.513619
 31
0.0
  0
LINE
  5
D6
102
{ACAD_REACTORS
330
E4
102
}
100
AcDbEntity
  8
0
370
     0
  6
Continuous
 62
     7
 48
0.1
100
AcDbLine
 10
784.714399
 20
397.291121
 30
0.0
 11
784.714399
 21
391.791121
 31
0.0
  0
LINE
  5
D7
102
{ACAD_REACTORS
330
E4
102
}
100
AcDbEntity
  8
0
370
     0
  6
DASHED
 62
   255
 48
0.1
100
AcDbLine
 10
784.714399
 20
397.021121
 30
0.0
 11
792.181363
 21
397.021121
 31
0.0
  0
LINE
  5
D8
102
{ACAD_REACTORS
330
E4
102
}
100
AcDbEntity
  8
0
370
     0
  6
DASHED
 62
   255
 48
0.1
100
AcDbLine
 10
784.714399
 20
392.061121
 30
0.0
 11
792.181363
 21
392.061121
 31
0.0
  0
LINE
  5
D9
102
{ACAD_REACTORS
330
E4
102
}
100
AcDbEntity
  8
0
370
     0
  6
Continuous
 62
     7
 48
0.1
100
AcDbLine
 10
789.171363
 20
390.568622
 30
0.0
 11
789.171363
 21
398.513619
 31
0.0
  0
LINE
  5
DA
102
{ACAD_REACTORS
330
E4
102
}
100
AcDbEntity
  8
0
370
     0
  6
Continuous
 62
     7
 48
0.1
100
AcDbLine
 10
784.714399
 20
397.291121
 30
0.0
 11
789.171363
 21
397.541121
 31
0.0
  0
LINE
  5
DB
102
{ACAD_REACTORS
330
E4
102
}
100
AcDbEntity
  8
0
370
     0
  6
Continuous
 62
     7
 48
0.1
100
AcDbLine
 10
789.171363
 20
391.541121
 30
0.0
 11
784.714399
 21
391.791121
 31
0.0
  0
LINE
  5
DC
102
{ACAD_REACTORS
330
E4
102
}
100
AcDbEntity
  8
0
370
     0
  6
DASHED
 62
   255
 48
0.1
100
AcDbLine
 10
792.181363
 20
392.061121
 30
0.0
 11
792.181363
 21
397.021121
 31
0.0
  0
LINE
  5
DD
102
{ACAD_REACTORS
330
E4
102
}
100
AcDbEntity
  8
0
370
     0
  6
Continuous
 62
     7
 48
0.1
100
AcDbLine
 10
790.911363
 20
392.061121
 30
0.0
 11
790.911363
 21
397.021121
 31
0.0
  0
ARC
  5
DE
102
{ACAD_REACTORS
330
E4
102
}
100
AcDbEntity
  8
0
370
     0
  6
Continuous
 62
     7
100
AcDbCircle
 10
590.191363
 20
394.541121
 30
0.0
 40
2.08
100
AcDbArc
 50
90.0
 51
270.0
  0
ARC
  5
DF
102
{ACAD_REACTORS
330
E4
102
}
100
AcDbEntity
  8
0
370
     0
  6
Continuous
 62
     7
100
AcDbCircle
 10
590.191363
 20
394.541121
 30
0.0
 40
2.48
100
AcDbArc
 50
90.0
 51
270.0
  0
LINE
  5
E0
102
{ACAD_REACTORS
330
E4
102
}
100
AcDbEntity
  8
0
370
     0
  6
Continuous
 62
     7
 48
0.1
100
AcDbLine
 10
590.191363
 20
397.021121
 30
0.0
 11
790.911363
 21
397.021121
 31
0.0
1001
TCAD
1000
TCW_REFPOINT
1002
{
1010
622.583639
1020
397.021121
1030
0.0
1002
}
  0
LINE
  5
E1
102
{ACAD_REACTORS
330
E4
102
}
100
AcDbEntity
  8
0
370
     0
  6
Continuous
 62
     7
 48
0.1
100
AcDbLine
 10
590.191363
 20
392.061121
 30
0.0
 11
790.911363
 21
392.061121
 31
0.0
1001
TCAD
1000
TCW_REFPOINT
1002
{
1010
622.583639
1020
392.061121
1030
0.0
1002
}
  0
LINE
  5
E2
102
{ACAD_REACTORS
330
E4
102
}
100
AcDbEntity
  8
0
370
     0
  6
Continuous
 62
     7
 48
0.1
100
AcDbLine
 10
590.191363
 20
392.461121
 30
0.0
 11
790.911363
 21
392.461121
 31
0.0
1001
TCAD
1000
TCW_REFPOINT
1002
{
1010
622.583639
1020
392.461121
1030
0.0
1002
}
  0
LINE
  5
E3
102
{ACAD_REACTORS
330
E4
102
}
100
AcDbEntity
  8
0
370
     0
  6
Continuous
 62
     7
 48
0.1
100
AcDbLine
 10
590.191363
 20
396.621121
 30
0.0
 11
790.911363
 21
396.621121
 31
0.0
1001
TCAD
1000
TCW_REFPOINT
1002
{
1010
622.583639
1020
396.621121
1030
0.0
1002
}
  0
ENDSEC
  0
SECTION
  2
OBJECTS
  0
DICTIONARY
  5
19
100
AcDbDictionary
280
     0
281
     1
  3
ACAD_GROUP
350
1A
  3
ACAD_MLINESTYLE
350
1B
  3
ACAD_LAYOUT
350
1E
  3
ACAD_PLOTSETTINGS
350
22
  3
ACAD_PLOTSTYLENAME
350
1F
  0
DICTIONARY
  5
1A
102
{ACAD_REACTORS
330
19
102
}
100
AcDbDictionary
280
     0
281
     1
  3
Group_1
350
47
  3
Group_2
350
52
  3
Group_2
350
5C
  3
Group_2
350
65
  3
Group_2
350
6E
  3
Group_2
350
77
  3
Group_2
350
80
  3
Group_2
350
89
  3
Group_2
350
92
  3
Group_2
350
E4
  0
DICTIONARY
  5
1B
102
{ACAD_REACTORS
330
19
102
}
100
AcDbDictionary
280
     0
281
     1
  3
Standard
350
1C
  0
MLINESTYLE
  5
1C
100
AcDbMlineStyle
  2
STANDARD
 70
     0
  3

 62
   256
 51
90.0
 52
90.0
 71
     3
 49
1.25
 62
     7
  6
Continuous
 49
0.0
 62
     7
  6
Continuous
 49
-1.25
 62
     7
  6
Continuous
  0
ACDBDICTIONARYWDFLT
  5
1F
102
{ACAD_REACTORS
330
19
102
}
100
AcDbDictionary
281
     1
  3
Normal
350
1D
100
AcDbDictionaryWithDefault
340
1D
  0
ACDBPLACEHOLDER
  5
1D
102
{ACAD_REACTORS
330
1F
102
}
  0
LAYOUT
  5
21
102
{ACAD_REACTORS
330
1E
102
}
100
AcDbPlotSettings
  1

  2

  4

  6

 40
0.0
 41
0.0
 42
0.0
 43
0.0
 44
0.0
 45
0.0
 46
0.0
 47
0.0
 48
0.0
 49
0.0
140
0.0
141
0.0
142
1.0
143
1.0
 70
     0
 72
     0
 73
     0
 74
     0
  7

 75
     0
147
1.0
148
0.0
149
0.0
100
AcDbLayout
  1
Layout1
 70
     0
 71
     0
 10
0.0
 20
0.0
 11
0.0
 21
0.0
 12
0.0
 22
0.0
 32
0.0
 14
0.0
 24
0.0
 34
0.0
 15
0.0
 25
0.0
 35
0.0
146
0.0
 13
0.0
 23
0.0
 33
0.0
 16
0.0
 26
0.0
 36
0.0
 17
0.0
 27
0.0
 37
0.0
 76
     0
330
B
331
0
345
0
346
0
  0
DICTIONARY
  5
1E
102
{ACAD_REACTORS
330
19
102
}
100
AcDbDictionary
280
     0
281
     1
  3
Model
350
E5
  3
Paper 1
350
E8
  0
DICTIONARY
  5
22
102
{ACAD_REACTORS
330
19
102
}
100
AcDbDictionary
280
     0
281
     1
  0
GROUP
  5
47
102
{ACAD_REACTORS
330
1A
102
}
100
AcDbGroup
300

 70
     0
 71
     1
340
36
340
38
340
39
340
3B
340
3C
340
3D
340
3E
340
3F
340
40
340
41
340
42
340
43
340
44
340
45
340
46
  0
GROUP
  5
52
102
{ACAD_REACTORS
330
1A
102
}
100
AcDbGroup
300

 70
     0
 71
     1
340
4A
340
4B
340
4C
340
4D
340
4E
340
4F
340
50
340
51
  0
GROUP
  5
5C
102
{ACAD_REACTORS
330
1A
102
}
100
AcDbGroup
300

 70
     0
 71
     1
340
54
340
55
340
56
340
57
340
58
340
59
340
5A
340
5B
  0
GROUP
  5
65
102
{ACAD_REACTORS
330
1A
102
}
100
AcDbGroup
300

 70
     0
 71
     1
340
5D
340
5E
340
5F
340
60
340
61
340
62
340
63
340
64
  0
GROUP
  5
6E
102
{ACAD_REACTORS
330
1A
102
}
100
AcDbGroup
300

 70
     0
 71
     1
340
66
340
67
340
68
340
69
340
6A
340
6B
340
6C
340
6D
  0
GROUP
  5
77
102
{ACAD_REACTORS
330
1A
102
}
100
AcDbGroup
300

 70
     0
 71
     1
340
6F
340
70
340
71
340
72
340
73
340
74
340
75
340
76
  0
GROUP
  5
80
102
{ACAD_REACTORS
330
1A
102
}
100
AcDbGroup
300

 70
     0
 71
     1
340
78
340
79
340
7A
340
7B
340
7C
340
7D
340
7E
340
7F
  0
GROUP
  5
89
102
{ACAD_REACTORS
330
1A
102
}
100
AcDbGroup
300

 70
     0
 71
     1
340
81
340
82
340
83
340
84
340
85
340
86
340
87
340
88
  0
GROUP
  5
92
102
{ACAD_REACTORS
330
1A
102
}
100
AcDbGroup
300

 70
     0
 71
     1
340
8A
340
8B
340
8C
340
8D
340
8E
340
8F
340
90
340
91
  0
GROUP
  5
E4
102
{ACAD_REACTORS
330
1A
102
}
100
AcDbGroup
300

 70
     0
 71
     1
340
D3
340
D4
340
D5
340
D6
340
D7
340
D8
340
D9
340
DA
340
DB
340
DC
340
DD
340
DE
340
DF
340
E0
340
E1
340
E2
340
E3
  0
LAYOUT
  5
E5
100
AcDbPlotSettings
  1

  2

  4

  6

 40
0.0
 41
0.0
 42
0.0
 43
0.0
 44
0.0
 45
0.0
 46
0.0
 47
0.0
 48
0.0
 49
0.0
140
0.0
141
0.0
142
1.0
143
1.0
 70
     0
 72
     1
 73
     0
 74
     0
  7

 75
     0
147
1.0
148
0.0
149
0.0
100
AcDbLayout
  1
Model
 70
     0
 71
     0
 10
0.0
 20
0.0
 11
0.0
 21
0.0
 12
0.0
 22
0.0
 32
0.0
 14
0.0
 24
0.0
 34
0.0
 15
0.0
 25
0.0
 35
0.0
146
0.0
 13
0.0
 23
0.0
 33
0.0
 16
0.0
 26
0.0
 36
0.0
 17
0.0
 27
0.0
 37
0.0
 76
     0
330
A
331
0
345
0
346
0
  0
LAYOUT
  5
E8
100
AcDbPlotSettings
  1

  2

  4

  6

 40
6.35
 41
7.62
 42
6.35
 43
7.62
 44
11.0
 45
8.5
 46
-6.35
 47
-7.62
 48
0.0
 49
0.0
140
0.0
141
0.0
142
1.0
143
1.0
 70
     0
 72
     0
 73
     0
 74
     0
  7

 75
     0
147
1.0
148
0.0
149
0.0
100
AcDbLayout
  1
Paper 1
 70
     1
 71
     1
 10
0.0
 20
0.0
 11
11.0
 21
8.5
 12
0.0
 22
0.0
 32
0.0
 14
0.0
 24
0.0
 34
0.0
 15
0.0
 25
0.0
 35
0.0
146
0.0
 13
0.0
 23
0.0
 33
0.0
 16
0.0
 26
0.0
 36
0.0
 17
0.0
 27
0.0
 37
0.0
 76
     0
330
B
331
E6
345
0
346
0
  0
ENDSEC
  0
EOF
